<svg class="img-fluid" id="outputsvg" xmlns="http://www.w3.org/2000/svg" style="max-height: none;" width="460" height="57" viewBox="0 0 18400 2280">
	<g id="lQKOzDgN4sjVMwncGDxVpL" fill="rgb(90,90,90)" style="transform: none;">
		<g style="transform: none;">
			<path id="puoGfw3st" d="M11880 2224 c0 -9 -9 -18 -20 -21 -15 -4 -20 -14 -20 -40 0 -26 -5 -36 -20 -40 -15 -4 -20 -14 -20 -40 0 -26 -5 -36 -19 -40 -11 -3 -21 -13 -24 -24 -3 -10 -12 -19 -21 -19 -9 0 -16 -7 -16 -16 0 -9 -9 -18 -19 -21 -11 -3 -21 -13 -24 -24 -4 -14 -14 -19 -40 -19 -26 0 -36 -5 -40 -20 -4 -15 -14 -20 -40 -20 -26 0 -36 -5 -40 -20 -4 -15 -14 -20 -41 -20 -26 0 -36 -4 -36 -15 0 -9 -10 -19 -23 -24 -13 -5 -29 -16 -36 -25 -7 -9 -24 -16 -37 -16 -15 0 -24 -6 -24 -15 0 -9 -8 -18 -17 -22 -10 -3 -30 -15 -45 -25 -14 -10 -33 -18 -42 -18 -9 0 -16 -7 -16 -16 0 -9 -9 -18 -20 -21 -11 -3 -20 -12 -20 -20 0 -8 -9 -17 -20 -20 -13 -3 -20 -14 -20 -28 0 -12 -7 -29 -16 -36 -9 -7 -20 -23 -25 -36 -5 -13 -15 -23 -24 -23 -11 0 -15 -10 -15 -36 0 -27 -5 -37 -19 -41 -14 -4 -21 -15 -23 -41 -3 -40 -26 -55 -35 -23 -5 19 -12 21 -83 21 -69 0 -78 -2 -83 -20 -3 -11 -12 -20 -20 -20 -8 0 -17 -9 -20 -20 -3 -11 -12 -20 -21 -20 -9 0 -16 -8 -16 -20 0 -11 6 -20 13 -20 8 0 22 -9 32 -20 10 -11 29 -20 42 -20 16 0 27 -7 30 -20 8 -29 78 -29 86 0 3 11 12 20 21 20 13 0 16 -13 16 -75 0 -56 5 -83 20 -110 12 -22 20 -54 20 -84 0 -40 3 -50 20 -54 15 -4 20 -14 20 -40 0 -27 5 -36 21 -40 40 -11 14 -32 -41 -35 -33 -2 -64 -11 -81 -23 -15 -10 -34 -19 -43 -19 -10 0 -16 -9 -16 -23 0 -13 -9 -32 -20 -42 -13 -11 -20 -31 -20 -52 0 -26 -5 -36 -20 -40 -16 -4 -20 -14 -20 -44 l0 -39 128 0 c116 0 131 2 147 20 10 11 24 20 32 20 8 0 13 13 13 36 0 27 5 37 20 41 14 4 20 14 20 34 0 16 4 29 8 29 21 0 72 -33 72 -46 0 -8 10 -14 23 -14 13 0 32 -9 42 -20 11 -12 31 -20 49 -20 17 0 42 -9 56 -20 21 -16 41 -20 126 -20 93 0 102 2 107 20 4 15 14 20 40 20 26 0 36 5 40 20 4 15 14 20 40 20 26 0 36 5 40 20 3 11 12 20 21 20 10 0 16 9 16 23 0 13 9 32 20 42 24 22 26 55 4 55 -9 0 -18 9 -21 20 -4 16 -14 20 -44 20 -27 0 -39 -4 -39 -14 0 -18 -95 -66 -131 -66 -18 0 -28 -6 -32 -20 -4 -17 -14 -20 -66 -20 -34 0 -70 4 -81 10 -11 5 -29 14 -40 20 -11 6 -34 10 -51 10 -22 0 -32 5 -36 20 -3 11 -12 20 -20 20 -8 0 -17 9 -20 20 -3 11 -12 20 -20 20 -8 0 -17 9 -20 20 -3 11 -11 20 -18 20 -17 0 -65 96 -65 131 0 18 -6 28 -20 32 -18 5 -20 14 -20 97 0 83 2 92 20 97 17 5 20 14 20 60 0 46 3 56 20 60 15 4 20 14 20 40 0 26 5 36 19 40 11 3 21 13 24 24 3 10 12 19 20 19 8 0 17 9 20 20 3 11 12 20 20 20 8 0 17 9 20 20 3 11 12 20 20 20 8 0 17 9 20 20 4 15 14 20 40 20 26 0 36 5 40 20 4 15 14 20 40 20 26 0 36 5 40 20 4 15 14 20 36 20 20 0 34 7 41 20 7 14 21 20 44 20 25 0 35 5 39 20 4 15 14 20 41 20 26 0 36 4 36 16 0 9 9 18 20 21 11 3 20 12 20 20 0 8 9 17 20 20 11 3 20 12 20 20 0 8 9 17 19 20 11 3 21 13 24 24 7 25 27 24 34 -1 3 -11 12 -20 20 -20 8 0 17 -9 20 -19 3 -11 13 -21 24 -24 10 -3 19 -12 19 -20 0 -8 9 -17 20 -20 11 -3 20 -12 20 -21 0 -12 10 -16 36 -16 27 0 37 -5 41 -20 4 -15 14 -20 40 -20 26 0 36 -5 40 -20 4 -15 14 -20 40 -20 26 0 36 -5 40 -20 4 -15 14 -20 40 -20 26 0 36 -5 40 -20 3 -11 11 -20 19 -20 7 0 18 -9 24 -20 7 -13 21 -20 41 -20 22 0 32 -5 36 -20 3 -11 12 -20 19 -20 8 0 18 -8 21 -17 4 -10 15 -24 25 -31 10 -7 18 -26 18 -41 0 -20 6 -30 20 -34 15 -4 20 -14 20 -40 0 -26 5 -36 20 -40 19 -5 20 -13 20 -159 0 -136 -3 -156 -20 -178 -11 -14 -20 -40 -20 -58 0 -25 -5 -35 -19 -39 -11 -3 -21 -13 -24 -24 -3 -10 -12 -19 -21 -19 -9 0 -16 -7 -16 -15 0 -9 -8 -19 -17 -22 -10 -4 -24 -15 -31 -25 -10 -13 -26 -18 -62 -18 -39 0 -53 -4 -62 -20 -11 -17 -24 -20 -80 -20 -38 0 -68 3 -68 8 0 12 -52 32 -83 32 -20 0 -30 6 -34 20 -3 11 -12 20 -20 20 -8 0 -17 9 -20 20 -8 30 -72 28 -101 -3 -27 -29 -31 -97 -6 -97 9 0 18 -9 21 -20 3 -11 12 -20 20 -20 8 0 17 -9 20 -20 3 -11 12 -20 20 -20 8 0 17 -9 20 -20 5 -17 14 -20 60 -20 46 0 56 -3 60 -20 5 -18 14 -20 103 -20 89 0 98 2 103 20 4 17 14 20 60 20 46 0 55 3 60 20 4 15 14 20 40 20 26 0 36 5 40 20 3 11 12 20 20 20 8 0 17 9 20 21 11 41 32 14 35 -44 2 -43 7 -57 18 -57 9 0 18 -9 21 -20 3 -11 12 -20 20 -20 8 0 17 -9 20 -20 5 -19 14 -20 134 -20 117 0 149 7 119 25 -5 3 -10 23 -10 43 0 43 -39 132 -58 132 -8 0 -16 9 -19 20 -3 11 -12 20 -20 20 -8 0 -17 9 -20 20 -4 16 -15 20 -62 22 -56 3 -56 3 -59 36 -3 27 1 35 17 39 16 4 21 13 21 40 0 26 5 36 20 40 19 5 20 14 20 139 0 114 2 136 16 141 9 3 19 2 23 -3 3 -5 18 -15 33 -23 24 -12 32 -11 77 10 27 13 52 32 54 42 3 9 12 17 21 17 12 0 16 10 16 40 0 39 -1 40 -36 40 -27 0 -37 5 -41 20 -5 17 -14 20 -63 20 -50 0 -58 -3 -63 -21 -4 -16 -12 -20 -39 -17 -33 3 -33 3 -36 59 -2 47 -6 58 -22 62 -15 4 -20 14 -20 40 0 26 -5 36 -20 40 -11 3 -20 12 -20 20 0 8 -9 17 -20 20 -11 3 -20 12 -20 20 0 8 -9 17 -20 20 -11 3 -20 12 -20 20 0 8 -9 17 -20 20 -11 3 -20 12 -20 20 0 8 -9 17 -20 20 -11 3 -20 12 -20 21 0 9 -6 16 -13 16 -8 0 -22 9 -32 20 -10 11 -29 20 -42 20 -16 0 -27 7 -30 20 -4 15 -14 20 -40 20 -26 0 -36 5 -40 20 -4 15 -14 20 -40 20 -26 0 -36 5 -40 20 -4 15 -14 20 -40 20 -26 0 -36 5 -40 20 -3 11 -11 20 -18 20 -6 0 -20 9 -29 19 -10 11 -30 21 -45 23 -22 3 -26 8 -29 39 -2 27 -9 38 -23 42 -10 3 -19 12 -19 20 0 8 -9 17 -20 20 -15 4 -20 14 -20 40 0 26 -5 36 -20 40 -15 4 -20 14 -20 41 0 29 -4 36 -20 36 -12 0 -20 -7 -20 -16z">
			</path>
			<path id="pT96ApzK0" d="M14560 2204 c0 -27 -5 -37 -20 -41 -15 -4 -20 -14 -20 -40 0 -26 -5 -36 -20 -40 -15 -4 -20 -14 -20 -40 0 -26 -5 -36 -20 -40 -15 -4 -20 -14 -20 -40 0 -26 -5 -36 -19 -40 -11 -3 -21 -13 -24 -24 -3 -10 -12 -19 -21 -19 -12 0 -16 -10 -16 -36 0 -26 -5 -37 -18 -40 -17 -5 -42 -47 -42 -71 0 -9 15 -13 46 -13 37 0 47 -4 51 -20 3 -11 11 -20 18 -20 14 0 65 -94 65 -120 0 -9 9 -25 20 -35 12 -11 20 -31 20 -50 0 -24 5 -34 20 -38 15 -4 20 -14 20 -41 0 -39 -12 -46 -32 -18 -7 10 -21 21 -30 25 -10 3 -18 13 -18 22 0 11 -11 15 -40 15 l-40 0 0 -71 c0 -62 -2 -70 -17 -67 -11 2 -19 14 -21 31 -2 16 -9 27 -19 27 -8 0 -17 9 -20 20 -3 11 -12 20 -20 20 -8 0 -17 9 -20 19 -3 11 -13 21 -24 24 -14 4 -19 14 -19 40 0 26 -5 36 -20 40 -17 4 -20 14 -20 55 0 36 5 54 20 67 11 10 20 22 20 27 0 4 -135 8 -300 8 -287 0 -300 -1 -300 -19 0 -10 9 -21 20 -24 13 -3 20 -14 20 -30 0 -13 9 -32 20 -42 11 -10 20 -24 20 -30 0 -7 9 -15 20 -18 15 -4 20 -14 20 -40 0 -26 5 -36 20 -40 15 -4 20 -14 20 -41 0 -26 4 -36 15 -36 9 0 19 -8 22 -17 4 -10 15 -24 25 -31 10 -8 18 -26 18 -43 0 -19 5 -29 14 -29 8 0 21 -12 28 -27 17 -35 38 -41 38 -11 0 13 13 36 28 51 25 24 35 27 103 27 63 0 79 -3 94 -20 14 -15 33 -20 93 -22 78 -3 105 -20 60 -37 -13 -5 -30 -16 -37 -25 -7 -9 -24 -16 -37 -16 -30 0 -33 -35 -4 -43 11 -3 20 -12 20 -20 0 -11 12 -17 38 -19 56 -5 50 -32 -8 -36 -27 -2 -53 -11 -66 -23 -19 -18 -33 -19 -150 -17 l-129 3 -3 38 c-3 29 -7 37 -23 37 -11 0 -19 -7 -19 -16 0 -9 -9 -18 -20 -21 -15 -4 -20 -14 -20 -40 0 -26 -5 -36 -20 -40 -15 -4 -20 -14 -20 -40 0 -25 -5 -36 -17 -39 -10 -3 -31 -32 -46 -65 -15 -32 -34 -59 -42 -59 -10 0 -15 -11 -15 -36 0 -27 -5 -37 -19 -41 -11 -3 -21 -13 -24 -24 -3 -10 -12 -19 -21 -19 -12 0 -16 -10 -16 -40 l0 -40 48 0 c36 0 54 5 67 20 17 19 31 20 212 20 122 0 193 -4 193 -10 0 -14 33 -13 48 2 7 7 12 20 12 30 0 13 -8 18 -30 18 -35 0 -39 14 -10 32 14 9 20 24 20 46 0 25 5 35 20 39 15 4 20 14 20 40 0 26 5 36 19 40 11 3 21 13 24 24 3 10 12 19 20 19 8 0 17 9 20 20 3 11 12 20 20 20 8 0 17 9 20 21 11 41 32 14 35 -44 l3 -57 38 0 c31 0 40 4 44 21 4 16 12 20 38 17 38 -4 51 -27 20 -35 -18 -5 -21 -13 -21 -60 0 -46 -3 -56 -20 -60 -15 -4 -20 -14 -20 -40 0 -26 -5 -36 -20 -40 -11 -3 -20 -11 -20 -19 0 -7 -9 -19 -19 -26 -11 -8 -21 -27 -23 -43 -4 -34 -27 -45 -35 -16 -4 17 -13 21 -44 21 -44 0 -48 -8 -19 -35 11 -10 20 -24 20 -30 0 -7 9 -15 20 -18 15 -4 20 -14 20 -40 0 -26 5 -36 20 -40 13 -3 20 -14 20 -30 0 -13 9 -32 20 -42 11 -10 20 -24 20 -30 0 -7 9 -15 20 -18 15 -4 20 -14 20 -39 0 -22 6 -37 20 -46 12 -7 20 -23 20 -41 0 -20 6 -30 20 -34 15 -4 20 -14 20 -41 0 -29 4 -36 20 -36 12 0 20 7 20 16 0 9 9 18 20 21 15 4 20 14 20 40 0 26 5 36 20 40 15 4 20 14 20 40 0 26 5 36 20 40 15 4 20 14 20 40 0 26 5 36 20 40 11 3 20 11 20 19 0 7 9 18 20 24 13 7 20 21 20 41 0 22 5 32 20 36 14 4 20 14 20 34 0 18 8 34 20 41 11 7 20 21 20 30 0 15 -9 18 -56 18 -47 0 -57 3 -61 19 -3 11 -13 21 -24 24 -14 4 -19 14 -19 40 0 26 -5 36 -20 40 -15 4 -20 14 -20 40 0 27 -5 36 -21 40 -18 5 -20 12 -17 58 3 54 25 79 35 40 4 -17 13 -21 44 -21 l39 0 0 69 c0 66 10 95 25 71 4 -6 18 -15 31 -20 15 -6 24 -18 24 -30 0 -12 9 -30 20 -42 11 -12 20 -28 20 -35 0 -7 7 -13 15 -13 9 0 18 -8 22 -17 3 -10 15 -30 25 -45 10 -14 18 -33 18 -41 0 -8 9 -17 20 -20 15 -4 20 -14 20 -37 0 -23 -5 -33 -20 -37 -28 -8 -30 -83 -1 -83 10 0 21 9 24 20 5 19 14 20 217 20 203 0 212 -1 217 -20 4 -16 14 -20 44 -20 l39 0 0 48 c0 36 -5 54 -20 67 -11 10 -20 24 -20 32 0 7 -7 13 -15 13 -8 0 -27 27 -42 59 -15 33 -36 62 -45 65 -13 3 -18 14 -18 39 0 26 -5 36 -20 40 -15 4 -20 14 -20 40 0 26 -5 36 -20 40 -15 4 -20 14 -20 41 0 35 -1 36 -39 36 -39 0 -40 -1 -43 -37 l-3 -38 -133 -3 c-126 -2 -134 -1 -139 17 -4 14 -15 21 -42 23 -46 4 -46 22 -1 47 42 22 54 65 21 74 -12 3 -21 12 -21 21 0 11 -9 16 -30 16 -23 0 -30 4 -30 20 0 18 7 20 68 20 57 0 72 4 87 20 17 19 29 20 119 18 l101 -3 3 -37 c3 -37 4 -38 43 -38 38 0 39 1 39 36 0 27 5 37 20 41 15 4 20 14 20 40 0 25 5 36 18 39 9 3 30 32 45 65 15 32 34 59 42 59 10 0 15 11 15 36 0 27 5 37 19 41 11 3 21 13 24 24 3 10 12 19 21 19 13 0 16 11 16 50 0 43 -3 50 -19 50 -11 0 -23 -4 -26 -10 -4 -6 -102 -10 -261 -10 -242 0 -254 -1 -254 -19 0 -10 9 -21 20 -24 15 -4 20 -14 20 -37 0 -23 -5 -33 -20 -37 -15 -4 -20 -14 -20 -40 0 -26 -5 -36 -19 -40 -11 -3 -21 -13 -24 -24 -3 -10 -12 -19 -21 -19 -12 0 -16 -10 -16 -36 0 -27 -5 -37 -19 -41 -11 -3 -21 -13 -24 -24 -3 -10 -12 -19 -21 -19 -9 0 -16 -6 -16 -14 0 -20 -19 -31 -33 -17 -7 7 -7 17 1 35 7 16 8 28 2 31 -6 4 -10 24 -10 46 0 32 -4 39 -19 39 -10 0 -21 -9 -24 -21 -4 -16 -12 -20 -39 -17 -29 3 -33 7 -36 36 -3 27 1 35 17 39 18 5 21 13 21 60 0 44 4 56 18 59 9 3 30 32 45 65 l28 59 54 0 c47 0 55 3 55 19 0 10 -9 21 -20 24 -15 4 -20 14 -20 40 0 26 -5 36 -20 40 -11 3 -20 12 -20 20 0 8 -9 17 -20 20 -15 4 -20 14 -20 40 0 26 -5 36 -20 40 -15 4 -20 14 -20 40 0 26 -5 36 -20 40 -15 4 -20 14 -20 40 0 26 -5 36 -20 40 -15 4 -20 14 -20 40 0 26 -5 36 -20 40 -11 3 -20 12 -20 21 0 9 -8 16 -20 16 -16 0 -20 -7 -20 -36z m37 -344 c3 -11 11 -20 17 -20 7 0 25 -13 40 -29 28 -29 28 -51 0 -51 -10 0 -14 -14 -14 -56 0 -47 -3 -57 -19 -61 -14 -4 -21 -15 -23 -42 -2 -24 -8 -36 -18 -36 -11 0 -16 14 -18 56 -2 41 -8 62 -22 74 -29 26 -29 134 -1 142 11 3 21 13 24 24 7 25 27 24 34 -1z m-519 -343 c2 -25 8 -37 19 -37 8 0 17 -9 20 -19 3 -11 13 -21 24 -24 10 -3 19 -12 19 -21 0 -9 7 -16 15 -16 9 0 19 -8 22 -17 4 -10 14 -23 22 -30 9 -6 13 -14 10 -18 -4 -3 -14 1 -22 10 -10 9 -34 15 -66 15 -27 0 -53 5 -56 10 -3 6 -16 10 -29 10 -12 0 -26 4 -31 9 -6 5 -21 11 -35 13 -21 3 -26 10 -32 52 -4 28 -5 53 -2 58 3 4 22 8 43 8 31 0 40 4 44 21 9 33 32 17 35 -24z m1082 24 c0 -16 8 -20 38 -23 30 -2 38 -7 40 -26 2 -14 -4 -30 -15 -40 -11 -9 -22 -25 -26 -34 -3 -10 -15 -18 -25 -18 -22 0 -72 -22 -72 -32 0 -5 -31 -8 -69 -8 -46 0 -71 -4 -74 -12 -2 -7 -8 -9 -13 -5 -5 4 -4 11 2 15 6 4 13 15 17 25 3 9 13 17 22 17 8 0 15 7 15 16 0 9 9 18 19 21 11 3 21 13 24 24 3 10 12 19 21 19 9 0 16 7 16 15 0 9 8 19 18 22 9 4 23 15 30 25 17 24 32 23 32 -1z m-564 -272 c10 -17 -13 -36 -27 -22 -12 12 -4 33 11 33 5 0 12 -5 16 -11z m-124 -47 c7 -10 21 -21 31 -25 20 -8 19 -28 -2 -35 -7 -2 -15 5 -18 16 -2 11 -13 22 -24 25 -10 3 -19 12 -19 21 0 21 16 20 32 -2z m228 -7 c0 -11 -51 -57 -57 -52 -3 3 6 17 18 31 23 24 39 32 39 21z m16 -146 c10 -17 -13 -36 -27 -22 -12 12 -4 33 11 33 5 0 12 -5 16 -11z m-120 -40 c10 -17 -13 -36 -27 -22 -12 12 -4 33 11 33 5 0 12 -5 16 -11z m-398 -127 c2 -7 -5 -16 -17 -19 -12 -3 -21 -12 -21 -20 0 -8 -9 -17 -20 -20 -15 -4 -20 -14 -20 -40 0 -26 -5 -36 -19 -40 -11 -3 -21 -13 -24 -24 -6 -23 -40 -25 -58 -3 -7 9 -24 20 -37 25 -21 8 -23 14 -20 61 l3 53 76 3 c68 2 78 5 82 23 4 16 12 20 38 17 18 -2 34 -9 37 -16z m879 -2 c5 -17 14 -20 59 -20 52 0 54 -1 71 -37 9 -21 21 -41 26 -44 21 -15 -3 -39 -38 -39 -24 0 -35 -5 -35 -14 0 -28 -21 -27 -50 3 -17 16 -30 34 -30 40 0 6 -7 11 -16 11 -9 0 -18 9 -21 20 -3 11 -12 20 -20 20 -8 0 -17 9 -20 20 -3 11 -11 20 -19 20 -7 0 -16 5 -19 10 -12 20 7 30 57 30 41 0 51 -3 55 -20z m-489 -192 c7 -7 12 -22 12 -35 0 -12 9 -38 20 -58 11 -20 20 -48 20 -64 0 -20 6 -30 20 -34 28 -7 28 -67 1 -74 -11 -3 -21 -13 -24 -24 -7 -27 -67 -27 -74 0 -3 11 -13 21 -24 24 -16 4 -19 14 -19 57 0 43 3 53 20 57 18 5 20 14 20 84 0 78 5 90 28 67z">
			</path>
			<path id="pfHPzBuf5" d="M1160 2104 c0 -9 -9 -18 -19 -21 -11 -3 -21 -13 -24 -24 -3 -10 -12 -19 -20 -19 -8 0 -17 -9 -20 -20 -4 -15 -14 -20 -41 -20 -26 0 -36 -4 -36 -16 0 -9 -9 -18 -19 -21 -11 -3 -21 -13 -24 -24 -4 -13 -14 -19 -36 -19 -20 0 -34 -7 -41 -20 -6 -11 -17 -20 -24 -20 -7 0 -21 -9 -31 -20 -10 -11 -28 -20 -40 -20 -14 0 -25 -8 -28 -20 -4 -15 -14 -20 -40 -20 -26 0 -36 -5 -40 -20 -3 -13 -14 -20 -30 -20 -13 0 -32 -9 -42 -20 -10 -11 -24 -20 -30 -20 -7 0 -15 -9 -18 -20 -4 -15 -14 -20 -41 -20 -26 0 -36 -4 -36 -16 0 -9 -9 -18 -20 -21 -11 -3 -20 -12 -20 -20 0 -8 -9 -17 -20 -20 -15 -4 -20 -14 -20 -40 0 -26 -5 -36 -20 -40 -18 -5 -20 -14 -20 -103 0 -89 2 -98 20 -103 15 -4 20 -14 20 -40 0 -26 5 -36 20 -40 15 -4 20 -14 20 -40 0 -26 5 -36 20 -40 13 -3 20 -14 20 -30 0 -13 9 -32 20 -42 11 -10 20 -24 20 -30 0 -7 9 -15 20 -18 11 -3 20 -12 20 -20 0 -8 9 -17 20 -20 11 -3 20 -12 20 -20 0 -8 9 -17 20 -20 15 -4 20 -14 20 -40 0 -26 5 -36 20 -40 11 -3 20 -12 20 -21 0 -9 7 -16 16 -16 9 0 18 -9 21 -19 3 -11 13 -21 24 -24 14 -4 19 -14 19 -41 0 -26 4 -36 16 -36 9 0 18 -9 21 -20 3 -11 14 -20 24 -20 16 0 19 8 19 56 0 47 3 57 20 61 15 4 20 14 20 40 0 26 5 36 20 40 11 3 20 11 20 19 0 7 27 26 59 41 34 16 62 36 65 46 3 14 12 18 38 15 48 -4 44 -32 -4 -36 -26 -2 -38 -8 -38 -19 0 -8 -9 -17 -19 -20 -11 -3 -21 -13 -24 -24 -3 -10 -12 -19 -21 -19 -9 0 -16 -7 -16 -16 0 -9 -9 -18 -20 -21 -19 -5 -20 -14 -20 -133 0 -114 2 -129 20 -145 11 -10 20 -24 20 -32 0 -7 7 -13 16 -13 9 0 18 -9 21 -19 3 -11 13 -21 24 -24 14 -4 19 -14 19 -41 0 -26 4 -36 16 -36 9 0 18 -9 21 -19 3 -11 13 -21 24 -24 14 -4 19 -14 19 -40 0 -26 5 -36 20 -40 18 -5 20 -14 20 -81 l0 -76 40 0 c39 0 40 1 40 36 0 27 5 37 20 41 11 3 20 12 20 20 0 8 9 17 20 20 15 4 20 14 20 40 0 26 5 36 20 40 15 4 20 14 20 40 0 26 5 36 20 40 25 7 26 37 1 72 -10 14 -21 37 -22 51 -2 13 -14 30 -26 36 -13 6 -31 18 -40 26 -10 8 -26 18 -35 21 -11 4 -18 17 -18 30 0 13 -9 32 -20 42 -11 10 -20 24 -20 30 0 7 -9 15 -20 18 -19 5 -21 12 -18 79 2 60 6 73 21 76 15 3 17 -6 17 -77 0 -67 3 -81 16 -81 9 0 18 -9 21 -20 3 -11 12 -20 20 -20 8 0 17 -9 20 -20 3 -11 12 -20 19 -20 8 0 17 -7 21 -16 13 -35 54 -64 88 -64 28 0 35 4 35 19 0 10 -9 21 -20 24 -19 5 -20 14 -20 157 0 143 1 152 20 157 15 4 20 14 20 40 0 26 5 36 20 40 11 3 20 12 20 20 0 8 9 17 19 20 11 3 22 14 24 25 6 21 28 21 35 -1 2 -7 -5 -15 -17 -18 -12 -3 -21 -12 -21 -20 0 -8 -9 -17 -20 -20 -17 -5 -20 -14 -20 -63 0 -38 -4 -60 -12 -63 -10 -3 -10 -9 0 -26 6 -11 12 -40 12 -64 0 -31 6 -49 20 -62 11 -10 20 -24 20 -32 0 -7 6 -13 13 -13 8 0 22 -9 32 -20 28 -31 35 -24 35 36 0 47 3 57 20 61 15 4 20 14 20 40 0 26 5 36 20 40 15 4 20 14 20 40 0 26 5 36 20 40 11 3 20 12 20 20 0 8 9 17 20 20 11 3 20 12 20 19 0 8 8 18 18 21 9 4 24 15 33 25 9 10 28 18 43 18 17 0 26 5 26 16 0 9 9 18 20 21 15 4 20 14 20 40 0 26 5 36 20 40 11 3 20 12 20 20 0 8 9 17 20 20 15 4 20 14 20 40 0 26 5 36 20 40 19 5 20 14 20 123 0 104 -2 119 -20 135 -11 10 -20 28 -20 40 0 14 -8 25 -20 28 -11 3 -20 12 -20 20 0 8 -9 17 -20 20 -11 3 -20 12 -20 20 0 8 -9 17 -20 20 -11 3 -20 11 -20 19 0 7 -27 26 -60 41 -33 15 -60 34 -60 42 0 10 -11 15 -36 15 -27 0 -37 5 -41 20 -4 15 -14 20 -40 20 -26 0 -36 5 -40 19 -3 11 -13 21 -24 24 -10 3 -19 12 -19 21 0 12 -10 16 -36 16 -27 0 -37 5 -41 19 -3 11 -13 21 -24 24 -10 3 -19 12 -19 21 0 12 -10 16 -36 16 -27 0 -37 5 -41 20 -3 11 -12 20 -20 20 -8 0 -17 9 -20 19 -3 11 -13 21 -24 24 -10 3 -19 12 -19 21 0 13 -12 16 -60 16 -48 0 -60 -3 -60 -16z m85 -164 c10 -11 29 -20 42 -20 16 0 27 -7 30 -20 4 -15 14 -20 40 -20 26 0 36 -5 40 -20 3 -11 12 -20 20 -20 8 0 17 -9 20 -19 4 -14 15 -21 41 -23 38 -3 54 -24 27 -34 -9 -4 -28 2 -44 14 -29 21 -84 25 -297 23 -73 -1 -82 -3 -87 -21 -4 -15 -14 -20 -40 -20 -26 0 -36 -5 -40 -20 -4 -15 -14 -20 -41 -20 -26 0 -36 -4 -36 -16 0 -9 -9 -18 -20 -21 -16 -4 -20 -14 -20 -52 0 -35 -5 -50 -20 -61 -26 -19 -26 -46 0 -53 15 -4 20 -14 20 -39 0 -30 5 -35 48 -55 65 -31 192 -34 192 -4 0 10 -9 21 -20 24 -11 3 -20 12 -20 20 0 8 -9 17 -20 20 -18 5 -20 14 -20 97 0 82 2 92 19 97 11 3 21 13 24 24 4 13 14 19 34 19 31 0 83 20 83 33 0 4 24 7 53 7 41 0 58 -5 72 -20 13 -14 31 -20 63 -20 26 0 54 -7 70 -18 15 -10 35 -22 45 -25 9 -4 17 -13 17 -22 0 -8 7 -15 16 -15 9 0 18 -9 21 -19 3 -11 13 -21 24 -24 12 -3 19 -14 19 -30 0 -13 9 -32 20 -42 16 -15 20 -31 20 -85 0 -54 -4 -70 -20 -85 -11 -10 -20 -26 -20 -35 0 -26 -51 -120 -65 -120 -7 0 -15 -9 -18 -20 -4 -15 -14 -20 -41 -20 -25 0 -36 -4 -36 -15 0 -8 -18 -23 -40 -32 -22 -10 -40 -21 -40 -25 0 -5 -17 -8 -39 -8 -30 0 -40 -4 -44 -20 -4 -15 -14 -20 -39 -20 -22 0 -37 -6 -46 -20 -7 -11 -21 -20 -32 -20 -30 0 -24 16 10 32 17 7 30 21 30 30 0 16 -10 18 -76 18 -67 0 -76 2 -81 20 -4 15 -14 20 -40 20 -26 0 -36 5 -40 20 -3 11 -13 20 -22 20 -20 0 -61 44 -61 65 0 8 -7 15 -16 15 -9 0 -18 9 -21 19 -3 11 -13 21 -24 24 -13 4 -19 14 -19 36 0 17 -9 46 -20 66 -28 49 -28 125 0 132 15 4 20 14 20 40 0 26 5 36 20 40 27 7 30 83 2 83 -9 0 -23 -9 -30 -20 -7 -12 -23 -20 -41 -20 -20 0 -30 -6 -34 -20 -3 -11 -12 -20 -20 -20 -8 0 -17 -9 -20 -20 -3 -11 -12 -20 -20 -20 -8 0 -17 -9 -20 -20 -3 -11 -12 -20 -21 -20 -12 0 -16 -10 -16 -36 0 -27 -5 -37 -20 -41 -18 -5 -20 -14 -20 -103 0 -89 2 -98 20 -103 15 -4 20 -14 20 -41 0 -20 5 -36 10 -36 6 0 10 -7 10 -15 0 -8 -4 -15 -10 -15 -5 0 -10 7 -10 15 0 8 -7 15 -15 15 -9 0 -19 10 -24 23 -5 13 -16 29 -25 36 -9 7 -16 24 -16 36 0 14 -7 25 -20 28 -18 5 -20 14 -20 97 0 79 2 93 18 96 9 3 30 32 45 65 15 32 34 59 41 59 7 0 21 9 31 20 10 11 28 20 40 20 14 0 25 8 28 20 4 15 14 20 40 20 26 0 36 5 40 20 4 15 14 20 40 20 26 0 36 5 40 20 4 15 14 20 40 20 26 0 36 5 40 20 3 13 14 20 30 20 13 0 32 9 42 20 10 11 25 20 34 20 9 0 27 9 41 20 14 11 30 20 36 20 7 0 14 9 17 20 3 11 12 20 20 20 8 0 17 9 20 20 4 14 14 20 35 20 16 0 37 -9 47 -20z m435 -250 c0 -5 6 -10 13 -10 6 0 23 -9 37 -20 14 -11 33 -20 43 -20 11 0 21 -9 24 -20 3 -11 12 -20 20 -20 8 0 17 -9 20 -19 3 -11 13 -21 24 -24 10 -3 19 -12 19 -21 0 -9 7 -16 16 -16 9 0 18 -9 21 -19 3 -11 13 -21 24 -24 31 -8 27 -118 -7 -185 -14 -29 -32 -52 -39 -52 -7 0 -15 -9 -18 -20 -3 -11 -12 -20 -20 -20 -8 0 -17 -9 -20 -20 -3 -11 -10 -20 -16 -20 -22 0 -23 29 -2 59 18 25 21 43 21 144 0 106 -1 115 -20 120 -15 4 -20 14 -20 41 0 26 -4 36 -16 36 -9 0 -18 9 -21 19 -3 11 -13 21 -24 24 -10 3 -19 12 -19 20 0 8 -9 17 -20 20 -11 3 -20 12 -20 21 0 9 -4 16 -10 16 -5 0 -10 5 -10 10 0 6 5 10 10 10 6 0 10 -4 10 -10z">
			</path>
			<path id="p4EQA3CRc" d="M1320 1524 c0 -107 -1 -116 -20 -121 -11 -3 -20 -11 -20 -18 0 -7 -23 -25 -52 -39 -44 -22 -65 -26 -139 -26 -48 0 -91 5 -94 10 -13 21 -35 10 -35 -19 0 -20 6 -30 20 -34 11 -3 20 -12 20 -21 0 -9 7 -16 16 -16 9 0 18 -9 21 -20 3 -11 11 -20 18 -20 6 0 20 -9 30 -20 16 -17 31 -20 119 -20 83 0 108 4 148 22 26 13 49 31 51 41 3 9 12 17 20 17 8 0 17 9 20 20 3 11 11 20 19 20 22 0 58 90 58 147 0 42 -3 52 -20 56 -15 4 -20 14 -20 41 0 35 -1 36 -36 36 -27 0 -37 5 -41 19 -3 11 -13 21 -24 24 -10 3 -19 12 -19 21 0 9 -8 16 -20 16 -19 0 -20 -7 -20 -116z">
			</path>
			<path id="p1E0HlItlW" d="M6440 2096 c0 -13 -7 -29 -15 -36 -8 -7 -29 -41 -46 -76 -16 -35 -37 -64 -45 -64 -9 0 -14 -11 -14 -36 0 -27 -5 -37 -19 -41 -11 -3 -21 -13 -24 -24 -3 -10 -12 -19 -20 -19 -8 0 -17 -9 -20 -20 -3 -11 -12 -20 -21 -20 -9 0 -16 -7 -16 -16 0 -9 -9 -18 -19 -21 -11 -3 -21 -13 -24 -24 -3 -10 -12 -19 -21 -19 -12 0 -16 -10 -16 -39 0 -30 4 -40 20 -44 11 -3 20 -10 20 -17 0 -7 -9 -14 -20 -17 -14 -4 -20 -14 -20 -32 0 -38 17 -51 65 -51 60 0 95 -39 95 -104 0 -39 -4 -49 -19 -53 -11 -3 -21 -13 -24 -24 -4 -16 -14 -19 -57 -19 -43 0 -53 3 -57 20 -4 15 -14 20 -40 20 -26 0 -36 5 -40 20 -4 16 -14 20 -48 20 -29 0 -47 6 -60 20 -16 18 -31 20 -135 20 -109 0 -118 -1 -123 -20 -4 -15 -14 -20 -40 -20 -26 0 -36 -5 -40 -20 -3 -11 -12 -20 -20 -20 -8 0 -17 -9 -20 -20 -3 -11 -12 -20 -21 -20 -12 0 -16 -10 -16 -36 0 -27 -5 -37 -20 -41 -17 -5 -20 -14 -20 -68 0 -49 -4 -66 -20 -80 -12 -11 -20 -31 -20 -49 0 -18 9 -49 20 -71 11 -22 20 -52 20 -67 0 -21 5 -28 20 -28 12 0 20 7 20 16 0 9 9 18 20 21 15 4 20 14 20 40 0 26 5 36 20 40 11 3 20 12 20 20 0 8 9 17 20 20 11 3 20 10 20 15 0 12 56 68 68 68 5 0 12 9 15 20 4 15 14 20 40 20 26 0 36 5 40 20 4 17 14 20 55 20 32 0 65 8 91 22 36 19 44 20 66 8 20 -10 33 -11 64 -2 21 7 57 12 80 12 22 0 41 5 41 10 0 6 8 10 18 10 9 0 40 23 69 50 29 28 57 50 63 50 6 0 10 37 10 99 0 90 -2 99 -20 104 -11 3 -20 12 -20 20 0 8 -9 17 -20 20 -11 3 -20 12 -20 20 0 11 -12 17 -37 19 -26 2 -38 8 -38 18 0 11 14 16 53 18 47 3 54 1 59 -17 3 -12 12 -21 20 -21 8 0 17 -9 20 -19 3 -11 13 -21 24 -24 10 -3 19 -12 19 -20 0 -8 9 -17 20 -20 28 -7 28 -91 0 -127 -11 -14 -20 -33 -20 -43 0 -11 -9 -21 -19 -24 -11 -3 -21 -13 -24 -24 -3 -10 -12 -19 -20 -19 -8 0 -17 -9 -20 -20 -3 -11 -12 -20 -20 -20 -8 0 -17 -9 -20 -20 -4 -15 -14 -20 -40 -20 -26 0 -36 -5 -40 -20 -5 -18 -14 -20 -80 -20 -66 0 -75 -2 -80 -20 -5 -18 -14 -20 -100 -20 -86 0 -95 -2 -100 -20 -4 -15 -14 -20 -41 -20 -26 0 -36 -4 -36 -16 0 -9 -9 -18 -19 -21 -11 -3 -21 -13 -24 -24 -3 -10 -12 -19 -21 -19 -9 0 -16 -7 -16 -16 0 -9 -9 -18 -20 -21 -15 -4 -20 -14 -20 -40 0 -26 -5 -36 -20 -40 -19 -5 -20 -14 -20 -133 0 -114 2 -129 20 -145 14 -13 20 -31 20 -60 0 -29 6 -47 20 -60 11 -10 20 -24 20 -32 0 -7 9 -13 20 -13 18 0 20 7 20 56 0 47 3 57 20 61 16 4 20 14 20 50 0 28 7 55 19 71 10 15 21 39 25 55 3 15 13 27 21 27 11 0 15 11 15 36 0 27 5 37 20 41 11 3 20 12 20 20 0 8 9 17 20 20 11 3 20 12 20 20 0 8 9 17 20 20 11 3 20 12 20 19 0 8 10 18 23 23 13 5 29 16 36 25 7 9 24 16 36 16 14 0 25 7 28 20 4 15 14 20 40 20 26 0 36 5 40 20 4 15 14 20 40 20 26 0 36 5 40 20 4 15 14 20 40 20 26 0 36 5 40 20 3 11 12 20 21 20 9 0 16 7 16 16 0 9 9 18 19 21 11 3 21 13 24 24 3 10 12 19 21 19 9 0 16 6 16 14 0 28 22 28 51 0 16 -15 29 -34 29 -41 0 -7 7 -13 16 -13 9 0 18 -9 21 -20 4 -15 14 -20 40 -20 26 0 36 -5 40 -20 3 -11 11 -20 18 -20 6 0 20 -9 30 -20 10 -11 26 -20 35 -20 27 0 120 -51 120 -66 0 -20 -24 -17 -45 6 -13 14 -31 20 -62 20 -36 0 -46 4 -50 20 -5 17 -14 20 -64 20 -63 0 -70 -7 -39 -35 11 -10 20 -24 20 -32 0 -7 10 -13 23 -13 29 0 57 -29 57 -57 0 -12 8 -23 20 -26 11 -3 20 -12 20 -20 0 -8 9 -17 20 -20 15 -4 20 -14 20 -40 0 -26 5 -36 20 -40 15 -4 20 -14 20 -40 0 -26 5 -36 20 -40 18 -5 20 -14 20 -80 0 -66 2 -75 20 -80 18 -5 20 -14 20 -97 0 -83 -2 -92 -20 -97 -17 -5 -20 -14 -20 -64 0 -33 -3 -59 -7 -59 -9 0 -33 -49 -33 -67 0 -8 14 -13 39 -13 30 0 40 4 44 20 4 15 14 20 41 20 26 0 36 4 36 16 0 9 9 18 20 21 11 3 20 12 20 20 0 8 9 17 19 20 11 3 22 12 24 21 3 10 12 28 20 42 54 94 57 107 57 245 0 124 -1 133 -20 138 -15 4 -20 14 -20 41 0 26 -4 36 -16 36 -9 0 -18 9 -21 19 -3 11 -13 21 -24 24 -10 3 -19 12 -19 20 0 8 -9 17 -20 20 -11 3 -20 12 -20 20 0 8 -9 17 -20 20 -11 3 -20 11 -20 19 0 7 -13 19 -30 26 -37 17 -39 32 -4 32 17 0 28 -6 31 -20 3 -12 14 -20 27 -20 31 -1 96 -63 96 -93 0 -16 7 -26 20 -30 11 -3 20 -12 20 -20 0 -8 9 -17 20 -20 13 -3 20 -14 20 -30 0 -13 9 -32 20 -42 12 -11 20 -31 20 -50 0 -24 5 -34 20 -38 18 -5 20 -14 20 -77 0 -53 4 -76 17 -88 12 -12 18 -13 21 -4 2 6 12 12 23 12 15 0 19 7 19 36 0 27 5 37 20 41 19 5 20 14 20 183 0 169 -1 178 -20 183 -13 3 -20 14 -20 29 0 28 -28 55 -82 81 -21 10 -38 24 -38 32 0 10 -11 15 -36 15 -27 0 -37 5 -41 20 -5 18 -14 20 -80 20 -94 0 -118 16 -79 55 30 30 52 32 68 5 11 -17 24 -20 80 -20 53 0 70 -4 80 -18 7 -10 21 -21 31 -25 9 -3 17 -13 17 -22 0 -8 6 -15 13 -15 8 0 22 -9 32 -20 10 -11 23 -20 30 -20 18 0 45 -34 45 -57 0 -12 8 -23 20 -26 11 -3 20 -12 20 -20 0 -8 9 -17 20 -20 15 -4 20 -14 20 -41 0 -35 1 -36 40 -36 l40 0 0 159 c0 150 -1 159 -20 164 -15 4 -20 14 -20 41 0 26 -4 36 -16 36 -9 0 -18 9 -21 20 -3 11 -12 20 -20 20 -8 0 -17 9 -20 19 -3 11 -13 21 -24 24 -10 3 -19 12 -19 21 0 9 -6 16 -13 16 -8 0 -22 9 -32 20 -16 18 -31 20 -145 20 -119 0 -128 -1 -133 -20 -4 -15 -14 -20 -36 -20 -17 0 -46 -9 -66 -20 -20 -11 -48 -20 -64 -20 -20 0 -30 -6 -34 -20 -4 -17 -14 -20 -57 -20 -43 0 -53 3 -57 19 -3 11 -13 21 -24 24 -16 4 -19 14 -19 57 0 43 3 53 19 57 11 3 21 13 24 24 4 16 14 19 61 19 l56 0 0 39 c0 31 -4 40 -21 44 -29 8 -19 31 15 35 24 3 27 7 24 35 -2 23 -10 35 -30 45 -16 7 -28 19 -28 26 0 8 -9 16 -20 19 -11 3 -20 12 -20 21 0 9 -7 16 -15 16 -8 0 -27 27 -42 59 -15 33 -36 62 -45 65 -11 2 -18 14 -18 29 0 13 -9 32 -20 42 -11 10 -20 23 -20 30 0 7 -9 20 -20 30 -11 10 -20 27 -20 37 0 31 -30 68 -56 68 -19 0 -24 -5 -24 -24z m37 -195 c3 -11 13 -21 24 -24 14 -4 19 -14 19 -37 0 -23 -5 -33 -19 -37 -11 -3 -21 -13 -24 -24 -3 -10 -10 -19 -17 -19 -7 0 -14 9 -17 19 -3 11 -13 21 -24 24 -25 7 -24 27 1 34 15 4 20 14 20 37 0 18 3 36 7 39 12 13 25 7 30 -12z m-40 -201 c8 -30 78 -29 86 1 3 12 11 19 18 17 22 -7 22 -29 1 -35 -11 -2 -22 -13 -25 -24 -7 -27 -67 -27 -74 1 -3 11 -11 20 -19 20 -16 0 -27 17 -19 30 10 16 27 11 32 -10z m286 -67 c13 -13 -16 -33 -49 -33 -24 0 -34 -5 -34 -16 0 -9 -9 -18 -19 -21 -11 -3 -21 -13 -24 -24 -3 -10 -12 -19 -21 -19 -13 0 -16 -13 -16 -79 0 -70 2 -79 20 -84 15 -4 20 -14 20 -41 0 -25 5 -36 15 -36 8 0 19 -9 25 -20 7 -13 21 -20 41 -20 22 0 32 -5 36 -20 5 -17 14 -20 67 -20 55 -1 96 -15 96 -34 0 -3 -24 -6 -53 -6 -51 0 -107 17 -107 33 0 4 -11 7 -24 7 -13 0 -30 7 -37 16 -7 9 -23 20 -36 25 -13 5 -23 15 -23 24 0 8 -7 15 -15 15 -9 0 -19 10 -24 23 -5 13 -16 29 -25 36 -13 11 -16 34 -16 113 0 91 2 100 20 105 11 3 20 12 20 19 0 8 10 18 23 23 13 5 29 16 36 25 13 16 91 23 104 9z">
			</path>
			<path id="pblXZhg92" d="M9077 2100 c-5 -18 -14 -20 -100 -20 -86 0 -95 -2 -100 -20 -3 -11 -12 -20 -21 -20 -9 0 -16 -8 -16 -20 0 -19 7 -20 180 -20 99 0 180 -3 180 -7 0 -3 -11 -21 -26 -40 -19 -26 -32 -33 -58 -33 -25 0 -35 -5 -39 -20 -4 -15 -14 -20 -40 -20 -26 0 -36 -5 -40 -20 -4 -15 -14 -20 -40 -20 -26 0 -36 -5 -40 -20 -3 -11 -12 -20 -20 -20 -8 0 -17 -9 -20 -20 -3 -11 -12 -20 -21 -20 -9 0 -16 -7 -16 -16 0 -9 -9 -18 -20 -21 -15 -4 -20 -14 -20 -40 0 -26 -5 -36 -20 -40 -15 -4 -20 -14 -20 -40 0 -26 -5 -36 -20 -40 -19 -5 -20 -14 -20 -124 0 -110 1 -119 19 -119 10 0 21 9 24 20 3 11 12 20 20 20 8 0 17 9 20 20 4 16 14 20 49 21 143 4 188 -9 188 -56 0 -14 8 -25 20 -28 15 -4 20 -14 20 -40 0 -26 5 -36 20 -40 17 -4 20 -14 20 -61 0 -31 -3 -56 -7 -56 -13 0 -33 -52 -33 -83 0 -20 -6 -30 -20 -34 -11 -3 -20 -12 -20 -20 0 -8 -9 -17 -20 -20 -11 -3 -20 -12 -20 -20 0 -8 -9 -17 -19 -20 -11 -3 -21 -13 -24 -24 -4 -15 -14 -19 -54 -19 -48 0 -103 -17 -103 -32 0 -17 -68 -7 -85 12 -12 13 -31 20 -55 20 -41 0 -140 45 -140 65 0 7 -9 15 -20 18 -11 3 -20 12 -20 20 0 8 -9 17 -20 20 -11 3 -20 12 -20 20 0 8 -9 17 -20 20 -15 4 -20 14 -20 40 0 21 -7 41 -20 52 -16 14 -20 31 -20 79 0 45 -6 68 -20 86 -17 22 -20 41 -20 143 0 110 -1 117 -20 117 -16 0 -20 -7 -20 -36 0 -27 -5 -37 -20 -41 -14 -4 -20 -14 -20 -34 0 -16 -9 -44 -20 -64 -16 -29 -20 -54 -20 -130 0 -52 -4 -97 -10 -100 -5 -3 -10 -17 -10 -30 0 -13 5 -27 10 -30 6 -4 10 -58 10 -129 0 -115 1 -124 20 -129 16 -4 20 -14 20 -44 0 -22 8 -48 20 -63 11 -14 20 -40 20 -57 0 -23 5 -33 16 -33 9 0 18 -9 21 -19 3 -11 13 -21 24 -24 14 -4 19 -14 19 -41 0 -26 4 -36 16 -36 9 0 18 -9 21 -20 3 -11 12 -20 20 -20 8 0 17 -9 20 -20 3 -11 12 -20 20 -20 8 0 17 -9 20 -20 3 -11 12 -20 20 -20 8 0 17 -9 20 -20 3 -11 14 -20 24 -20 15 0 19 7 19 40 0 29 -4 40 -15 40 -9 0 -19 8 -22 18 -4 9 -15 24 -25 33 -11 10 -18 30 -18 51 0 22 -7 42 -20 53 -12 11 -20 31 -20 51 0 18 -6 34 -12 37 -7 2 -9 8 -5 13 4 5 11 4 15 -2 4 -6 15 -13 25 -17 9 -3 17 -13 17 -22 0 -11 10 -15 36 -15 27 0 37 -5 41 -20 3 -11 12 -20 20 -20 8 0 17 -9 20 -20 4 -15 14 -20 40 -20 26 0 36 -5 40 -20 5 -17 14 -20 62 -20 40 0 63 -6 81 -20 18 -14 41 -20 81 -20 48 0 57 3 62 20 5 18 14 20 81 20 62 0 76 3 76 15 0 9 8 18 18 22 9 3 29 15 44 25 14 10 33 18 42 18 9 0 16 8 16 20 0 18 -7 20 -56 20 -47 0 -57 3 -61 20 -3 11 -12 20 -20 20 -8 0 -17 9 -20 19 -3 11 -13 21 -24 24 -16 4 -19 15 -19 75 0 56 4 72 20 87 11 10 20 29 20 42 0 16 7 27 19 30 11 3 21 13 24 24 4 14 14 19 40 19 26 0 36 5 40 20 5 19 14 20 137 20 123 0 132 -1 137 -20 4 -15 14 -20 40 -20 26 0 36 -5 40 -19 3 -11 13 -21 24 -24 12 -3 19 -14 19 -30 0 -13 9 -32 20 -42 11 -10 20 -28 20 -40 0 -12 9 -30 20 -40 18 -16 20 -31 20 -127 0 -101 -2 -110 -20 -115 -15 -4 -20 -14 -20 -40 0 -26 -5 -36 -20 -40 -11 -3 -20 -11 -20 -18 0 -6 -9 -20 -20 -30 -11 -10 -20 -29 -20 -42 0 -16 -7 -27 -19 -30 -11 -3 -21 -13 -24 -24 -4 -13 -14 -19 -36 -19 -20 0 -34 -7 -41 -20 -6 -11 -17 -20 -24 -20 -8 0 -16 -9 -19 -20 -4 -15 -14 -20 -40 -20 -26 0 -36 -5 -40 -20 -4 -15 -14 -20 -41 -20 -20 0 -36 -5 -36 -11 0 -6 -9 -24 -21 -40 l-20 -29 78 0 c67 0 80 3 91 20 10 17 23 20 81 20 60 0 69 2 74 20 4 15 14 20 39 20 18 0 44 9 58 20 14 11 32 20 41 20 9 0 19 9 22 20 4 15 14 20 41 20 26 0 36 4 36 16 0 9 9 18 19 21 11 3 21 13 24 24 3 10 12 19 21 19 9 0 16 7 16 15 0 9 10 19 23 24 13 5 29 16 36 25 7 9 18 16 23 16 17 0 38 28 38 50 0 13 8 24 19 27 11 3 21 13 24 24 3 10 11 19 19 19 7 0 26 27 41 60 15 33 34 60 42 60 11 0 15 14 15 56 0 47 3 57 20 61 16 4 20 14 20 50 0 30 6 51 20 65 28 31 25 48 -8 48 -34 0 -52 -16 -52 -48 0 -15 -7 -26 -20 -29 -14 -4 -20 -14 -20 -34 0 -15 -8 -34 -18 -41 -10 -7 -21 -21 -25 -31 -3 -9 -13 -17 -21 -17 -7 0 -16 -9 -19 -20 -3 -11 -12 -20 -20 -20 -8 0 -17 -9 -20 -21 -3 -12 -12 -19 -19 -17 -21 7 -21 53 1 92 17 30 21 54 21 130 0 85 -2 94 -20 99 -17 4 -20 14 -20 60 0 46 -3 55 -20 60 -15 4 -20 14 -20 40 0 26 -5 36 -20 40 -11 3 -20 12 -20 21 0 9 -7 16 -15 16 -9 0 -19 10 -24 23 -10 25 -37 51 -63 60 -10 4 -18 13 -18 22 0 11 -10 15 -36 15 -27 0 -37 5 -41 20 -3 11 -14 20 -24 20 -17 0 -19 -11 -21 -117 l-3 -118 -26 -3 c-15 -2 -35 -12 -45 -23 -25 -27 -189 -28 -225 -1 -13 10 -32 21 -41 25 -10 3 -18 13 -18 22 0 8 -7 15 -16 15 -9 0 -18 9 -21 19 -3 11 -13 21 -24 24 -14 4 -19 14 -19 40 0 26 -5 36 -20 40 -18 5 -20 14 -20 97 0 83 2 92 20 97 14 4 20 14 20 32 0 35 48 131 65 131 7 0 15 9 18 20 4 15 14 20 40 20 26 0 36 5 40 20 4 15 14 20 40 20 26 0 36 5 40 20 5 19 13 20 119 20 97 0 117 -3 138 -20 14 -11 39 -20 56 -20 18 0 38 -8 49 -20 13 -14 31 -20 62 -20 34 0 46 -4 49 -17 3 -10 32 -31 65 -46 32 -15 59 -34 59 -42 0 -8 9 -15 20 -15 17 0 20 7 20 40 0 30 -4 40 -16 40 -9 0 -18 9 -21 19 -3 11 -13 21 -24 24 -10 3 -19 12 -19 20 0 8 -9 17 -20 20 -11 3 -20 12 -20 20 0 8 -9 17 -20 20 -11 3 -20 12 -20 21 0 9 -7 16 -16 16 -9 0 -18 9 -21 19 -3 11 -13 21 -24 24 -10 3 -19 12 -19 21 0 10 -9 16 -24 16 -13 0 -30 7 -37 16 -7 9 -23 20 -36 25 -13 5 -23 15 -23 24 0 10 -10 15 -33 15 -21 0 -41 8 -52 20 -13 14 -31 20 -62 20 -36 0 -46 4 -50 20 -5 18 -14 20 -100 20 -86 0 -95 2 -100 20 -5 18 -14 20 -103 20 -89 0 -98 -2 -103 -20z">
			</path>
			<path id="pKM7ewkYR" d="M3635 2090 c-3 -5 -39 -10 -79 -10 -65 0 -74 -2 -79 -20 -4 -14 -14 -20 -33 -20 -37 0 -124 -41 -124 -58 0 -8 -9 -16 -20 -19 -11 -3 -20 -12 -20 -19 0 -8 -18 -22 -40 -31 -33 -15 -40 -23 -40 -45 0 -21 5 -28 19 -28 10 0 21 9 24 20 4 15 14 20 40 20 26 0 36 5 40 20 4 17 14 20 60 20 46 0 55 3 60 20 5 18 14 20 80 20 66 0 75 2 80 20 5 19 14 20 145 20 126 0 141 -2 157 -20 11 -13 31 -20 52 -20 26 0 36 -5 40 -20 4 -15 14 -20 40 -20 26 0 36 -5 40 -20 3 -11 12 -20 20 -20 8 0 17 -9 20 -20 3 -11 12 -20 20 -20 8 0 17 -9 20 -19 3 -11 13 -21 24 -24 14 -4 19 -14 19 -40 0 -26 5 -36 20 -40 15 -4 20 -14 20 -36 0 -17 9 -46 20 -66 16 -29 20 -54 20 -141 0 -97 -2 -106 -20 -111 -16 -4 -20 -14 -20 -48 0 -27 -6 -47 -16 -56 -9 -7 -20 -23 -25 -36 -5 -13 -15 -23 -24 -23 -9 0 -15 -9 -15 -23 0 -29 -29 -57 -58 -57 -13 0 -22 -6 -22 -16 0 -9 -9 -18 -19 -21 -11 -3 -21 -13 -24 -24 -4 -14 -14 -19 -40 -19 -26 0 -36 -5 -40 -20 -5 -19 -14 -20 -197 -20 -124 0 -199 4 -213 11 -16 9 -22 9 -25 0 -2 -6 -12 -11 -23 -11 -11 0 -19 -7 -19 -16 0 -9 -9 -18 -20 -21 -18 -5 -20 -14 -20 -84 0 -66 3 -79 16 -79 9 0 18 -9 21 -20 3 -11 11 -20 18 -20 6 0 20 -9 30 -20 15 -17 31 -20 102 -20 76 0 85 -2 90 -20 7 -27 69 -27 103 0 20 15 41 20 101 20 68 0 77 2 82 20 4 15 14 20 40 20 26 0 36 5 40 20 4 15 14 20 41 20 26 0 36 4 36 16 0 9 9 18 20 21 11 3 20 12 20 20 0 8 9 17 20 20 11 3 20 12 20 20 0 8 9 17 20 20 11 3 20 12 20 20 0 8 9 17 20 20 11 3 20 12 20 20 0 8 9 17 20 20 15 4 20 14 20 40 0 26 5 36 20 40 15 4 20 14 20 40 0 26 5 36 20 40 19 5 20 14 20 199 0 175 -2 197 -20 229 -11 20 -20 48 -20 64 0 21 -6 30 -21 34 -12 3 -19 11 -17 18 7 22 29 22 35 1 2 -11 13 -22 24 -25 14 -4 19 -14 19 -40 0 -26 5 -36 20 -40 15 -4 20 -14 20 -39 0 -22 6 -37 20 -46 17 -11 20 -23 20 -96 0 -47 5 -88 10 -91 6 -3 10 -39 10 -80 0 -41 -4 -77 -10 -80 -5 -3 -10 -40 -10 -82 0 -66 -2 -75 -20 -80 -15 -4 -20 -14 -20 -40 0 -26 -5 -36 -20 -40 -15 -4 -20 -14 -20 -40 0 -26 -5 -36 -20 -40 -11 -3 -20 -12 -20 -20 0 -8 -9 -17 -20 -20 -11 -3 -20 -10 -20 -16 0 -15 -51 -67 -66 -67 -6 0 -14 -9 -17 -20 -3 -11 -12 -20 -20 -20 -8 0 -17 -9 -20 -20 -3 -11 -12 -20 -20 -20 -8 0 -17 -9 -20 -20 -4 -15 -14 -20 -40 -20 -26 0 -36 -5 -40 -20 -4 -15 -14 -20 -40 -20 -26 0 -36 -5 -40 -20 -5 -18 -14 -20 -80 -20 -61 0 -77 -3 -92 -20 -15 -17 -31 -20 -95 -20 -64 0 -80 3 -95 20 -14 16 -31 20 -80 20 -49 0 -66 4 -80 20 -13 14 -31 20 -62 20 -36 0 -46 4 -50 20 -3 11 -12 20 -20 20 -8 0 -17 9 -20 20 -4 15 -14 20 -40 20 -26 0 -36 5 -40 20 -3 11 -12 20 -20 20 -8 0 -17 9 -20 20 -3 11 -12 20 -20 20 -8 0 -17 9 -20 20 -3 11 -12 20 -20 20 -8 0 -17 9 -20 19 -3 11 -13 21 -24 24 -10 3 -19 11 -19 19 0 12 -83 58 -107 58 -6 0 -13 -9 -16 -20 -4 -15 -14 -20 -41 -20 -33 0 -36 -3 -36 -28 0 -16 -8 -32 -20 -40 -14 -9 -20 -23 -20 -51 0 -30 4 -40 20 -44 15 -4 20 -14 20 -41 0 -26 4 -36 16 -36 9 0 18 -9 21 -20 3 -11 12 -20 20 -20 8 0 17 -9 20 -20 3 -11 12 -20 20 -20 8 0 17 -9 20 -20 3 -11 12 -20 20 -20 8 0 17 -9 20 -20 3 -11 12 -20 20 -20 8 0 17 -9 20 -20 3 -11 12 -20 20 -20 8 0 17 -9 20 -20 3 -11 12 -20 20 -20 8 0 17 -9 20 -20 4 -15 14 -20 40 -20 26 0 36 -5 40 -20 4 -15 14 -20 40 -20 26 0 36 -5 40 -20 4 -15 14 -20 40 -20 26 0 36 -5 40 -20 5 -18 14 -20 77 -20 55 0 77 -5 96 -20 22 -17 41 -20 166 -20 133 0 142 1 147 20 5 18 14 20 80 20 66 0 75 2 80 20 4 15 14 20 40 20 19 0 40 7 47 15 6 8 22 17 33 20 51 15 116 51 120 67 3 10 12 18 20 18 8 0 17 9 20 20 4 15 14 20 40 20 26 0 36 5 40 20 3 11 11 20 19 20 7 0 26 27 41 60 15 33 34 60 41 60 8 0 16 9 19 20 3 11 12 20 21 20 12 0 16 10 16 36 0 27 5 37 20 41 15 4 20 14 20 40 0 26 5 36 20 40 15 4 20 14 20 40 0 26 5 36 20 40 18 5 20 14 20 80 0 66 2 75 20 80 18 5 20 14 20 117 0 104 -12 166 -32 166 -5 0 -8 35 -8 79 0 70 -2 79 -20 84 -15 4 -20 14 -20 40 0 26 -5 36 -20 40 -15 4 -20 14 -20 40 0 26 -5 36 -20 40 -15 4 -20 14 -20 41 0 26 -4 36 -16 36 -9 0 -18 9 -21 19 -3 11 -13 21 -24 24 -10 3 -19 12 -19 20 0 8 -9 17 -20 20 -11 3 -20 12 -20 20 0 8 -9 17 -20 20 -11 3 -20 12 -20 20 0 8 -9 17 -20 20 -11 3 -20 12 -20 20 0 8 -9 17 -20 20 -11 3 -20 12 -20 20 0 8 -9 17 -20 20 -11 3 -20 12 -20 21 0 12 -10 16 -36 16 -27 0 -37 5 -41 20 -4 15 -14 20 -40 20 -26 0 -36 5 -40 20 -4 15 -14 20 -38 20 -19 0 -39 8 -50 20 -16 17 -31 20 -110 20 -56 0 -95 4 -103 12 -9 9 -31 9 -94 -1 -59 -9 -83 -10 -86 -2 -5 14 -39 14 -47 1z m721 -301 c10 -17 -13 -36 -27 -22 -12 12 -4 33 11 33 5 0 12 -5 16 -11z">
			</path>
			<path id="psaKHBETj" d="M17120 2050 c0 -5 -8 -10 -19 -10 -10 0 -21 -9 -24 -20 -3 -11 -12 -20 -21 -20 -9 0 -16 -7 -16 -16 0 -9 -9 -18 -20 -21 -11 -3 -20 -11 -20 -19 0 -7 -27 -26 -59 -41 -33 -15 -62 -36 -65 -45 -2 -10 -11 -18 -19 -18 -8 0 -17 -9 -20 -20 -3 -11 -12 -20 -21 -20 -9 0 -16 -7 -16 -16 0 -9 -9 -18 -20 -21 -11 -3 -20 -12 -20 -20 0 -8 -9 -17 -19 -20 -11 -3 -21 -13 -24 -24 -3 -10 -12 -19 -20 -19 -8 0 -17 -9 -20 -20 -3 -11 -12 -20 -20 -20 -8 0 -17 -9 -20 -20 -3 -11 -12 -20 -20 -20 -8 0 -17 -9 -20 -20 -3 -11 -12 -20 -20 -20 -8 0 -17 -9 -20 -20 -3 -11 -12 -20 -20 -20 -8 0 -17 -9 -20 -20 -3 -11 -11 -20 -19 -20 -7 0 -26 -27 -41 -60 -15 -33 -34 -60 -41 -60 -8 0 -16 -9 -19 -20 -3 -11 -12 -20 -21 -20 -10 0 -16 -9 -16 -24 0 -13 -7 -30 -16 -37 -9 -7 -20 -23 -25 -36 -5 -13 -15 -23 -24 -23 -12 0 -15 -15 -15 -79 0 -70 2 -79 20 -84 11 -3 20 -12 20 -21 0 -9 7 -16 15 -16 9 0 19 -10 24 -23 5 -13 16 -29 25 -36 9 -7 16 -24 16 -37 0 -21 5 -24 40 -24 39 0 40 1 40 36 0 27 5 37 20 41 15 4 20 14 20 40 0 26 5 36 20 40 15 4 20 14 20 38 0 19 8 39 20 50 11 10 20 29 20 42 0 16 7 27 20 30 15 4 20 14 20 40 0 26 5 36 20 40 15 4 20 14 20 40 0 26 5 36 19 40 11 3 21 13 24 24 3 10 12 19 21 19 12 0 16 10 16 36 0 27 5 37 20 41 11 3 20 12 20 20 0 8 9 17 20 20 15 4 20 14 20 40 0 26 5 36 19 40 11 3 21 13 24 24 3 10 12 19 20 19 8 0 17 9 20 20 3 11 12 20 21 20 12 0 16 10 16 36 0 27 5 37 20 41 11 3 20 12 20 20 0 8 9 17 19 20 11 3 21 13 24 24 3 10 12 19 20 19 8 0 17 9 20 20 3 11 12 20 20 20 8 0 17 9 20 20 7 28 67 28 74 1 3 -11 13 -21 24 -24 10 -3 19 -12 19 -21 0 -9 5 -16 11 -16 24 0 69 -59 69 -89 0 -22 5 -31 16 -31 9 0 18 -9 21 -20 3 -11 12 -20 20 -20 8 0 17 -9 20 -19 3 -11 13 -21 24 -24 14 -4 19 -14 19 -40 0 -26 5 -36 20 -40 15 -4 20 -14 20 -40 0 -27 5 -36 21 -40 16 -4 20 -12 17 -38 -4 -38 -27 -51 -35 -20 -3 12 -12 21 -20 21 -8 0 -17 9 -20 20 -3 11 -11 20 -17 20 -7 0 -22 9 -34 20 -12 11 -31 20 -43 20 -12 0 -23 8 -26 19 -3 11 -13 21 -24 24 -10 3 -19 12 -19 21 0 9 -7 16 -16 16 -9 0 -18 9 -21 20 -3 11 -12 20 -20 20 -8 0 -17 9 -20 20 -4 15 -14 20 -39 20 -23 0 -37 -6 -44 -20 -6 -11 -17 -20 -25 -20 -8 0 -15 -7 -15 -16 0 -9 -9 -18 -20 -21 -11 -3 -20 -12 -20 -20 0 -8 -9 -17 -20 -20 -11 -3 -20 -12 -20 -20 0 -8 -9 -17 -20 -20 -15 -4 -20 -14 -20 -40 0 -26 -5 -36 -20 -40 -11 -3 -20 -12 -20 -20 0 -8 -9 -17 -20 -20 -11 -3 -20 -11 -20 -18 0 -6 -9 -20 -20 -30 -11 -10 -20 -29 -20 -42 0 -16 -7 -27 -19 -30 -16 -4 -20 -16 -23 -61 -4 -72 1 -102 17 -102 8 0 29 -18 48 -40 24 -29 42 -40 61 -40 19 0 29 -6 33 -19 3 -11 13 -21 24 -24 10 -3 19 -12 19 -20 0 -8 9 -17 20 -20 11 -3 20 -12 20 -21 0 -26 72 -21 98 7 29 31 31 92 2 100 -11 3 -20 12 -20 20 0 8 -9 17 -20 20 -11 3 -20 12 -20 20 0 8 -9 17 -20 20 -11 3 -20 12 -20 21 0 9 -7 16 -16 16 -9 0 -18 9 -21 19 -3 11 -13 21 -24 24 -25 7 -24 27 1 34 15 4 20 14 20 40 0 26 5 36 20 40 11 3 20 12 20 20 0 8 9 17 19 20 11 3 21 13 24 24 3 10 12 19 20 19 8 0 17 9 20 20 4 17 14 20 57 20 43 0 53 -3 57 -20 3 -11 12 -20 20 -20 8 0 17 -9 20 -20 3 -11 11 -20 19 -20 7 0 18 -9 24 -20 7 -13 21 -20 41 -20 22 0 32 -5 36 -20 3 -11 12 -20 20 -20 8 0 17 -9 20 -20 3 -11 12 -20 20 -20 8 0 17 -9 20 -20 3 -11 12 -20 20 -20 8 0 17 -9 20 -19 3 -11 13 -21 24 -24 10 -3 19 -12 19 -20 0 -8 9 -17 20 -20 11 -3 20 -12 20 -21 0 -9 8 -16 20 -16 16 0 20 7 20 36 0 27 5 37 20 41 15 4 20 14 20 40 0 26 5 36 20 40 15 4 20 14 20 40 0 26 5 36 20 40 18 5 20 14 20 103 0 89 -2 98 -20 103 -11 3 -20 12 -20 20 0 8 -9 17 -20 20 -11 3 -20 12 -20 20 0 8 -9 17 -20 20 -14 4 -20 14 -20 36 0 24 -6 33 -34 46 -19 9 -43 29 -52 43 -24 37 -34 45 -76 65 -21 10 -38 24 -38 31 0 8 -9 16 -20 19 -11 3 -20 12 -20 20 0 8 -9 17 -20 20 -11 3 -20 12 -20 20 0 8 -9 17 -20 20 -11 3 -20 12 -20 20 0 8 -9 17 -20 20 -11 3 -20 12 -20 21 0 12 -10 16 -36 16 -27 0 -37 5 -41 20 -3 11 -14 20 -24 20 -11 0 -19 5 -19 10 0 6 -9 10 -20 10 -11 0 -20 -4 -20 -10z">
			</path>
			<path id="pXOhGJFC0" d="M3677 1940 c-4 -15 -14 -20 -39 -20 -22 0 -37 -6 -46 -20 -8 -13 -23 -20 -42 -20 -21 0 -30 -5 -30 -16 0 -9 -9 -18 -20 -21 -12 -3 -20 -14 -20 -28 0 -12 -9 -30 -20 -40 -13 -11 -20 -31 -20 -52 0 -26 -5 -36 -20 -40 -18 -5 -20 -14 -20 -83 0 -69 2 -78 20 -83 17 -4 20 -14 20 -60 0 -46 3 -55 20 -60 11 -3 20 -12 20 -20 0 -8 9 -17 20 -20 11 -3 20 -12 20 -21 0 -9 7 -16 16 -16 9 0 18 -9 21 -20 4 -15 14 -20 38 -20 19 0 39 -8 50 -20 16 -18 31 -20 125 -20 99 0 108 2 113 20 4 15 14 20 40 20 26 0 36 5 40 20 3 11 12 20 20 20 8 0 17 9 20 20 3 11 12 20 21 20 9 0 16 7 16 16 0 9 9 18 20 21 16 4 20 14 20 48 0 24 7 55 15 71 13 25 13 30 0 44 -8 9 -15 30 -15 47 0 22 -6 32 -20 36 -11 3 -20 12 -20 21 0 13 -13 16 -80 16 -67 0 -80 -3 -80 -16 0 -9 -9 -18 -20 -21 -17 -5 -20 -14 -20 -60 0 -46 -3 -56 -19 -60 -11 -3 -21 -13 -24 -24 -4 -16 -15 -19 -77 -19 -63 0 -72 2 -77 20 -3 11 -12 20 -20 20 -8 0 -17 9 -20 19 -3 11 -13 21 -24 24 -17 5 -19 15 -19 97 0 83 2 92 20 97 11 3 20 10 20 15 0 12 56 68 68 68 5 0 12 9 15 20 5 18 14 20 89 20 70 0 93 -4 136 -26 29 -14 52 -31 52 -37 0 -13 45 -37 67 -37 22 0 16 57 -7 63 -11 3 -20 12 -20 21 0 9 -7 16 -16 16 -9 0 -18 9 -21 20 -4 17 -14 20 -54 20 -38 0 -52 4 -61 20 -11 17 -24 20 -89 20 -68 0 -77 -2 -82 -20z">
			</path>
			<path id="pXJiP76ZX" d="M3042 1637 c-34 -35 -42 -50 -42 -80 0 -27 4 -37 16 -37 9 0 18 -9 21 -20 5 -17 14 -20 72 -20 39 0 72 5 79 12 7 7 12 40 12 80 0 56 -3 68 -16 68 -9 0 -18 9 -21 20 -4 15 -14 20 -42 20 -30 0 -44 -8 -79 -43z">
			</path>
			<path id="p19wTjFwUu" d="M11680 1500 c-6 -11 -17 -20 -24 -20 -8 0 -16 -9 -19 -20 -4 -15 -14 -20 -40 -20 -26 0 -36 -5 -40 -20 -4 -15 -14 -20 -40 -20 -26 0 -36 -5 -40 -20 -5 -19 -14 -20 -121 -20 l-116 0 0 -26 c0 -31 18 -51 51 -56 21 -3 24 -9 27 -56 3 -47 1 -54 -17 -59 -20 -5 -21 -13 -21 -123 0 -109 1 -118 20 -123 11 -3 20 -12 20 -21 0 -9 7 -16 16 -16 9 0 18 -9 21 -20 5 -17 14 -20 60 -20 46 0 56 -3 60 -20 5 -17 14 -20 63 -20 49 0 58 3 63 20 4 15 14 20 40 20 26 0 36 5 40 20 3 11 12 20 21 20 12 0 16 10 16 40 l0 40 -76 0 c-66 0 -77 2 -81 19 -3 11 -13 21 -24 24 -17 5 -19 15 -19 117 0 103 2 112 20 117 15 4 20 14 20 40 0 26 5 36 20 40 11 3 20 12 20 20 0 8 9 17 20 20 11 3 20 12 20 20 0 8 9 17 19 20 11 3 21 13 24 24 3 10 12 19 20 19 8 0 17 9 20 20 3 11 12 20 21 20 9 0 16 8 16 20 0 16 -7 20 -35 20 -24 0 -37 -6 -45 -20z">
			</path>
			<path id="pTdiH1X12" d="M12013 1508 c20 -47 34 -68 45 -68 8 0 16 -9 19 -19 3 -11 13 -21 24 -24 10 -3 19 -12 19 -21 0 -9 7 -16 16 -16 9 0 18 -9 21 -19 3 -11 13 -21 24 -24 10 -3 19 -12 19 -20 0 -8 9 -17 20 -20 15 -4 20 -14 20 -40 0 -26 5 -36 20 -40 18 -5 20 -14 20 -77 0 -63 -2 -72 -20 -77 -11 -3 -20 -11 -20 -17 0 -7 -13 -24 -28 -39 -22 -22 -38 -27 -76 -27 -37 0 -52 -5 -67 -22 -24 -30 -24 -31 7 -67 16 -20 35 -31 51 -31 16 0 27 -7 30 -20 5 -18 14 -20 83 -20 69 0 78 2 83 20 4 15 14 20 41 20 26 0 36 4 36 15 0 9 8 18 18 22 26 9 53 35 63 61 5 12 15 22 24 22 12 0 15 17 15 100 0 85 -2 100 -16 100 -9 0 -18 9 -21 19 -3 11 -14 21 -25 24 -15 4 -19 13 -16 39 3 30 6 33 39 36 27 2 38 9 42 23 3 10 12 19 21 19 9 0 16 8 16 20 0 19 -7 20 -113 20 -101 0 -116 2 -132 20 -13 14 -31 20 -62 20 -36 0 -46 4 -50 19 -3 11 -13 21 -24 24 -10 3 -19 12 -19 21 0 12 -10 16 -36 16 -27 0 -37 5 -41 20 -4 15 -14 20 -40 20 -24 0 -33 -4 -30 -12z">
			</path>
			<path id="pi3C8BdzX" d="M17840 1344 c0 -9 -9 -18 -20 -21 -15 -4 -20 -14 -20 -38 0 -19 -8 -39 -20 -50 -14 -13 -20 -31 -20 -62 0 -36 -4 -46 -20 -50 -15 -4 -20 -14 -20 -40 0 -26 -5 -36 -20 -40 -15 -4 -20 -14 -20 -40 0 -26 -5 -36 -19 -40 -11 -3 -21 -13 -24 -24 -3 -10 -12 -19 -21 -19 -12 0 -16 -10 -16 -36 0 -27 -5 -37 -20 -41 -11 -3 -20 -11 -20 -19 0 -7 -9 -18 -20 -24 -13 -7 -20 -21 -20 -41 0 -22 -6 -32 -19 -36 -11 -3 -21 -13 -24 -24 -3 -10 -12 -19 -21 -19 -12 0 -16 -10 -16 -36 0 -27 -5 -37 -19 -41 -11 -3 -21 -13 -24 -24 -3 -10 -12 -19 -21 -19 -9 0 -16 -7 -16 -16 0 -9 -9 -18 -19 -21 -11 -3 -21 -13 -24 -24 -3 -10 -12 -19 -21 -19 -12 0 -16 -10 -16 -36 0 -27 -5 -37 -20 -41 -11 -3 -20 -12 -20 -20 0 -8 -9 -17 -20 -20 -11 -3 -20 -12 -20 -20 0 -8 -9 -17 -19 -20 -11 -3 -22 -14 -24 -25 -9 -31 -32 -15 -35 24 -2 26 -9 37 -23 41 -10 3 -19 12 -19 20 0 8 -9 17 -20 20 -11 3 -20 12 -20 20 0 8 -9 17 -20 20 -11 3 -20 12 -20 20 0 8 -9 17 -20 20 -11 3 -20 12 -20 20 0 8 -9 17 -20 20 -15 4 -20 14 -20 41 0 26 -4 36 -16 36 -9 0 -18 9 -21 19 -3 11 -13 21 -24 24 -14 4 -19 14 -19 40 0 26 -5 36 -20 40 -15 4 -20 14 -20 40 0 27 -5 36 -21 40 -31 8 -18 31 20 35 26 3 34 -1 38 -17 3 -12 12 -21 20 -21 8 0 17 -9 20 -20 3 -11 12 -20 20 -20 8 0 17 -9 20 -19 3 -11 13 -21 24 -24 10 -3 19 -12 19 -21 0 -9 6 -16 13 -16 8 0 22 -9 32 -20 10 -11 29 -20 42 -20 16 0 27 -7 30 -19 3 -11 13 -21 24 -24 10 -3 19 -12 19 -21 0 -12 10 -16 40 -16 28 0 40 4 40 15 0 8 8 19 19 24 10 6 30 35 45 66 15 30 33 55 41 55 7 0 15 9 18 20 3 11 12 20 20 20 8 0 17 9 20 20 3 11 12 20 21 20 9 0 16 7 16 16 0 9 8 28 18 42 10 15 22 35 25 45 4 9 13 17 22 17 11 0 15 10 15 36 0 27 5 37 20 41 16 4 20 14 20 43 0 29 -4 39 -20 43 -11 3 -20 12 -20 20 0 8 -9 17 -20 20 -11 3 -20 12 -20 20 0 8 -9 17 -20 20 -11 3 -20 12 -20 21 0 9 -7 16 -16 16 -9 0 -18 9 -21 20 -3 11 -11 20 -18 20 -6 0 -20 9 -30 20 -10 11 -29 20 -42 20 -16 0 -27 7 -30 20 -4 16 -14 20 -43 20 -29 0 -39 -4 -43 -20 -3 -11 -12 -20 -21 -20 -12 0 -16 -10 -16 -40 0 -36 3 -40 24 -40 17 0 47 -23 100 -77 68 -70 76 -81 76 -116 0 -30 -4 -40 -20 -44 -15 -4 -20 -14 -20 -40 0 -26 -5 -36 -19 -40 -11 -3 -21 -13 -24 -24 -3 -10 -12 -19 -20 -19 -8 0 -17 -9 -20 -20 -4 -17 -14 -20 -57 -20 -43 0 -53 3 -57 20 -3 11 -12 20 -20 20 -8 0 -27 8 -41 18 -15 10 -35 22 -44 25 -10 4 -18 13 -18 21 0 7 -9 16 -20 19 -11 3 -20 12 -20 21 0 9 -7 16 -16 16 -9 0 -18 9 -21 20 -3 11 -12 20 -20 20 -8 0 -17 9 -20 20 -3 11 -12 20 -19 20 -8 0 -17 7 -21 16 -8 21 -46 59 -67 67 -9 4 -16 13 -16 22 0 22 -37 18 -43 -5 -3 -11 -12 -20 -21 -20 -12 0 -16 -10 -16 -36 0 -27 -5 -37 -20 -41 -16 -4 -20 -14 -20 -48 0 -29 -6 -47 -20 -60 -14 -13 -20 -31 -20 -60 0 -29 -6 -47 -20 -60 -24 -21 -27 -55 -5 -55 9 0 19 -10 24 -23 5 -13 16 -29 25 -36 9 -7 16 -24 16 -37 0 -15 6 -24 16 -24 9 0 18 -9 21 -20 3 -11 12 -20 20 -20 8 0 17 -9 20 -20 3 -11 12 -20 20 -20 8 0 17 -9 20 -20 3 -11 12 -20 20 -20 8 0 17 -9 20 -20 3 -11 12 -20 20 -20 8 0 17 -9 20 -19 3 -11 13 -21 24 -24 10 -3 19 -12 19 -20 0 -8 9 -17 20 -20 11 -3 20 -12 20 -21 0 -9 6 -16 13 -16 6 0 23 -9 37 -20 14 -11 33 -20 43 -20 11 0 21 -9 24 -19 3 -11 13 -21 24 -24 10 -3 19 -12 19 -20 0 -8 9 -17 20 -20 11 -3 20 -12 20 -21 0 -13 12 -16 59 -16 50 0 59 3 64 20 4 15 14 20 41 20 26 0 36 4 36 16 0 9 9 18 20 21 11 3 20 12 20 20 0 8 9 17 20 20 11 3 20 12 20 20 0 8 9 17 20 20 11 3 20 12 20 19 0 8 10 18 23 23 12 5 44 25 70 45 26 20 51 36 56 36 5 0 11 9 14 20 3 11 12 20 20 20 8 0 17 9 20 20 3 11 12 20 20 20 8 0 17 9 20 20 3 11 12 20 20 20 8 0 17 9 20 20 3 11 12 20 21 20 9 0 16 7 16 15 0 8 9 19 20 25 11 6 20 21 20 35 0 13 8 30 18 37 10 7 21 21 25 31 3 9 13 17 22 17 8 0 15 7 15 16 0 9 9 18 20 21 11 3 20 12 20 20 0 8 9 17 20 20 15 4 20 14 20 40 0 26 5 36 19 40 11 3 21 13 24 24 3 10 12 19 21 19 12 0 16 10 16 36 0 27 5 37 20 41 16 4 20 14 20 43 0 29 -4 39 -20 43 -15 4 -20 14 -20 41 0 26 -4 36 -16 36 -9 0 -18 9 -21 19 -3 11 -13 21 -24 24 -10 3 -19 12 -19 20 0 8 -9 17 -20 20 -11 3 -20 12 -20 21 0 9 -8 16 -20 16 -12 0 -20 -7 -20 -16z">
			</path>
			<path id="pYzjs9mW7" d="M2840 1264 c0 -9 -9 -18 -20 -21 -18 -5 -20 -14 -20 -84 0 -66 3 -79 16 -79 9 0 18 -9 21 -20 3 -11 12 -20 20 -20 8 0 17 -9 20 -20 5 -17 14 -20 64 -20 47 0 59 3 59 16 0 9 9 18 19 21 11 3 21 13 24 24 3 10 12 19 21 19 13 0 16 12 16 59 0 50 -3 59 -19 64 -14 3 -21 15 -23 38 l-3 34 -97 3 c-85 2 -98 1 -98 -14z">
			</path>
			<path id="p1AyN7TZaz" d="M6277 1060 c-4 -17 -14 -20 -60 -20 -46 0 -55 -3 -60 -20 -4 -15 -14 -20 -41 -20 -25 0 -36 -5 -36 -15 0 -8 -27 -27 -60 -42 -33 -15 -60 -34 -60 -41 0 -8 -9 -16 -20 -19 -11 -3 -20 -12 -20 -20 0 -8 -9 -17 -20 -20 -15 -4 -20 -14 -20 -40 0 -26 -5 -36 -20 -40 -17 -5 -20 -14 -20 -59 0 -43 -4 -55 -20 -64 -17 -9 -20 -21 -20 -74 0 -50 4 -67 20 -81 15 -14 20 -31 20 -72 0 -42 3 -53 16 -53 9 0 18 -9 21 -20 3 -11 12 -20 20 -20 8 0 17 -9 20 -20 3 -11 12 -20 20 -20 8 0 17 -9 20 -20 3 -11 12 -20 20 -20 8 0 17 -9 20 -20 3 -11 12 -20 20 -20 8 0 17 -9 20 -20 5 -17 14 -20 64 -20 51 0 59 3 59 19 0 10 -9 21 -20 24 -15 4 -20 14 -20 40 0 26 -5 36 -20 40 -19 5 -20 13 -20 174 0 151 2 170 20 193 12 15 20 41 20 63 0 30 4 40 20 44 15 4 20 14 20 40 0 26 5 36 20 40 15 4 20 14 20 40 0 26 5 36 20 40 11 3 20 12 20 20 0 8 9 17 19 20 11 3 21 13 24 24 3 10 12 19 20 19 8 0 17 9 20 20 3 11 12 20 21 20 9 0 16 8 16 20 0 17 -7 20 -39 20 -30 0 -40 -4 -44 -20z">
			</path>
			<path id="pXKTaZKQJ" d="M11840 624 c0 -9 -9 -18 -19 -21 -11 -3 -21 -13 -24 -24 -3 -10 -12 -19 -20 -19 -8 0 -17 -9 -20 -20 -3 -11 -12 -20 -21 -20 -12 0 -16 -10 -16 -36 0 -27 -5 -37 -20 -41 -15 -4 -20 -14 -20 -43 0 -24 7 -43 20 -55 14 -13 20 -31 20 -62 0 -33 4 -43 16 -43 9 0 18 -9 21 -19 3 -11 13 -21 24 -24 14 -4 19 -14 19 -40 0 -26 5 -36 20 -40 11 -3 20 -12 20 -20 0 -8 9 -17 20 -20 11 -3 20 -12 20 -21 0 -23 37 -20 43 4 3 11 12 20 21 20 12 0 16 10 16 36 0 27 5 37 20 41 11 3 20 12 20 20 0 8 9 17 20 20 15 4 20 14 20 40 0 26 5 36 20 40 18 5 20 14 20 103 0 89 -2 98 -20 103 -15 4 -20 14 -20 41 0 20 -5 36 -11 36 -14 0 -69 55 -69 69 0 7 -24 11 -60 11 -48 0 -60 -3 -60 -16z"></path>
	</g>
</g>
</svg>